<svg
    width="258.359"
    height="44.414"
    viewBox="0 0 258.359 44.414"
    xmlns="http://www.w3.org/2000/svg"
    >
    <g
        id="svgGroup"
        stroke-linecap="round"
        fill-rule="evenodd"
        font-size="9pt"
        stroke="#8f8e8e"
        stroke-width="0.25mm"
        fill="#000000"
        style="stroke: #8f8e8e; stroke-width: 0.25mm; fill: #000000"
    >
         <path
                  d="M 33.926 16.211 L 30.488 13.008 Q 31.06 12.417 31.855 11.491 A 61.802 61.802 0 0 0 31.895 11.445 A 16.312 16.312 0 0 0 32.986 10.014 A 19.373 19.373 0 0 0 33.457 9.287 A 15.606 15.606 0 0 0 34.727 6.729 Q 35.254 5.371 35.254 3.965 Q 35.254 3.73 35.234 3.438 Q 35.215 3.145 35.107 2.891 Q 35 2.637 34.775 2.461 Q 34.551 2.285 34.141 2.285 Q 33.253 2.285 32.23 2.826 A 7.221 7.221 0 0 0 31.748 3.105 Q 30.546 3.864 29.278 5.117 A 21.468 21.468 0 0 0 29.072 5.322 A 28.311 28.311 0 0 0 27.517 7.042 A 36.66 36.66 0 0 0 26.299 8.584 Q 24.902 10.449 23.613 12.539 A 61.327 61.327 0 0 0 21.201 16.826 A 53.811 53.811 0 0 0 19.738 19.919 A 46.227 46.227 0 0 0 19.248 21.094 A 37.88 37.88 0 0 0 18.506 23.101 A 29.267 29.267 0 0 0 17.939 24.98 A 17.385 17.385 0 0 0 17.648 26.274 Q 17.461 27.295 17.461 28.125 A 8.013 8.013 0 0 0 17.48 28.696 Q 17.52 29.26 17.647 29.623 A 1.55 1.55 0 0 0 17.764 29.883 A 1.219 1.219 0 0 0 17.983 30.167 A 0.886 0.886 0 0 0 18.613 30.41 A 2.431 2.431 0 0 0 19.205 30.332 Q 19.632 30.225 20.117 29.971 A 9.903 9.903 0 0 0 20.974 29.463 A 13.326 13.326 0 0 0 21.865 28.818 A 21.456 21.456 0 0 0 23.228 27.65 A 24.786 24.786 0 0 0 23.682 27.217 A 31.042 31.042 0 0 0 25.375 25.427 A 30.138 30.138 0 0 0 25.381 25.42 Q 26.172 24.512 26.807 23.672 A 33.926 33.926 0 0 0 27.108 23.268 Q 27.506 22.724 27.775 22.305 A 11.507 11.507 0 0 0 27.813 22.246 Q 28.164 21.68 28.418 21.074 A 14.687 14.687 0 0 1 28.902 20.039 A 16.448 16.448 0 0 1 29.004 19.844 A 50.489 50.489 0 0 1 29.719 19.849 A 39.973 39.973 0 0 1 30.381 19.863 A 74.37 74.37 0 0 1 31.631 19.912 A 79.664 79.664 0 0 0 32.852 19.961 A 320.392 320.392 0 0 0 33.477 19.98 A 384.245 384.245 0 0 0 34.141 20 A 0.668 0.668 0 0 0 34.086 20.077 Q 33.957 20.285 33.662 20.913 A 36.143 36.143 0 0 0 33.613 21.016 A 35.645 35.645 0 0 0 33.398 21.487 Q 33.082 22.191 32.684 23.144 A 105.926 105.926 0 0 0 32.627 23.281 Q 32.132 24.473 31.572 25.982 A 109.73 109.73 0 0 0 31.387 26.484 A 93.742 93.742 0 0 0 30.402 29.324 A 107.598 107.598 0 0 0 30.078 30.322 Q 29.434 32.344 28.887 34.473 A 49.245 49.245 0 0 0 28.14 37.855 A 44.014 44.014 0 0 0 28.008 38.613 A 17.303 17.303 0 0 1 27.481 38.76 Q 27.165 38.843 26.807 38.926 Q 26.133 39.082 25.469 39.219 A 32.985 32.985 0 0 1 24.834 39.343 A 24.368 24.368 0 0 1 24.258 39.443 Q 23.846 39.51 23.6 39.526 A 2.181 2.181 0 0 1 23.457 39.531 Q 23.809 38.027 24.15 36.66 A 45.491 45.491 0 0 1 24.902 33.994 A 40.071 40.071 0 0 1 25.811 31.426 A 32.899 32.899 0 0 1 26.641 29.498 A 38.03 38.03 0 0 1 26.973 28.809 A 28.196 28.196 0 0 1 25.4 30.664 A 16.707 16.707 0 0 1 24.133 31.902 A 14.622 14.622 0 0 1 23.701 32.266 A 9.452 9.452 0 0 1 22.635 33.017 A 7.802 7.802 0 0 1 21.943 33.389 Q 21.055 33.809 20.176 33.809 Q 19.677 33.809 19.078 33.583 A 5.069 5.069 0 0 1 18.818 33.477 A 6.996 6.996 0 0 1 17.898 32.981 A 8.794 8.794 0 0 1 17.305 32.568 A 10.47 10.47 0 0 1 16.276 31.675 A 12.477 12.477 0 0 1 15.82 31.201 Q 15.098 30.41 14.541 29.492 A 9.661 9.661 0 0 1 13.643 27.559 A 6.349 6.349 0 0 1 13.301 25.591 A 6.032 6.032 0 0 1 13.301 25.527 A 14.023 14.023 0 0 1 13.433 23.654 A 18.9 18.9 0 0 1 13.77 21.855 A 27.917 27.917 0 0 1 14.635 18.931 A 32.681 32.681 0 0 1 15.078 17.754 A 35.786 35.786 0 0 1 16.746 14.173 A 40.17 40.17 0 0 1 17.109 13.506 A 41.436 41.436 0 0 1 19.727 9.395 A 35.135 35.135 0 0 1 22.783 5.713 A 25.436 25.436 0 0 1 25.301 3.397 A 22.45 22.45 0 0 1 26.172 2.734 Q 27.93 1.465 29.746 0.732 A 9.938 9.938 0 0 1 32.442 0.049 A 9.052 9.052 0 0 1 33.379 0 A 3.15 3.15 0 0 1 34.696 0.293 A 3.604 3.604 0 0 1 34.717 0.303 A 6.04 6.04 0 0 1 35.947 1.064 A 8.124 8.124 0 0 1 37.002 2.07 A 15.398 15.398 0 0 1 37.418 2.566 Q 37.609 2.803 37.768 3.023 A 9.107 9.107 0 0 1 37.812 3.086 A 6.93 6.93 0 0 1 38.23 3.779 A 8.851 8.851 0 0 1 38.525 4.395 A 3.87 3.87 0 0 1 38.813 5.392 A 3.449 3.449 0 0 1 38.848 5.879 A 9.205 9.205 0 0 1 38.699 7.495 A 11.428 11.428 0 0 1 38.467 8.516 Q 38.086 9.902 37.422 11.27 Q 36.758 12.637 35.859 13.916 A 16.784 16.784 0 0 1 34.309 15.821 A 15.073 15.073 0 0 1 33.926 16.211 Z M 163.466 4.393 A 0.555 0.555 0 0 0 163.457 4.375 Q 163.336 4.227 163.178 3.992 A 10.98 10.98 0 0 1 163.027 3.76 A 11.611 11.611 0 0 0 162.749 3.342 A 15.946 15.946 0 0 0 162.422 2.891 A 12.264 12.264 0 0 0 162.144 2.535 A 15.032 15.032 0 0 0 161.621 1.924 Q 161.172 1.426 160.605 1.016 A 4.873 4.873 0 0 0 160.57 0.99 A 5.172 5.172 0 0 0 159.346 0.352 A 3.986 3.986 0 0 0 158.735 0.183 A 4.827 4.827 0 0 0 157.812 0.098 A 14.276 14.276 0 0 0 153.066 0.918 Q 150.723 1.738 148.604 3.105 A 25.168 25.168 0 0 0 144.687 6.221 A 29.416 29.416 0 0 0 143.819 7.101 A 25.343 25.343 0 0 0 141.572 9.824 A 20.974 20.974 0 0 0 140.665 11.212 A 16.836 16.836 0 0 0 139.512 13.506 Q 139.115 14.483 138.93 15.363 A 7.082 7.082 0 0 0 138.77 16.816 A 2.211 2.211 0 0 0 138.828 17.315 A 2.86 2.86 0 0 0 139.004 17.832 A 4.802 4.802 0 0 0 139.202 18.226 A 5.71 5.71 0 0 0 139.629 18.877 A 9.524 9.524 0 0 0 139.753 19.038 A 10.599 10.599 0 0 0 140.508 19.893 Q 140.996 20.391 141.523 20.84 A 1.387 1.387 0 0 0 141.821 21.046 A 1.902 1.902 0 0 0 142.129 21.172 A 3.951 3.951 0 0 0 142.178 21.187 A 4.287 4.287 0 0 0 142.91 21.338 A 8.684 8.684 0 0 0 143.73 21.396 Q 144.141 21.406 144.492 21.406 A 26.706 26.706 0 0 0 145.537 21.387 A 19.999 19.999 0 0 0 146.484 21.328 A 47.002 47.002 0 0 0 148.242 21.143 A 56.972 56.972 0 0 1 148.458 21.116 A 62.647 62.647 0 0 1 150.02 20.947 A 22.642 22.642 0 0 1 150.991 20.876 A 30.822 30.822 0 0 1 152.07 20.84 A 9.815 9.815 0 0 1 152.038 20.953 A 8.581 8.581 0 0 1 150.43 24.033 A 12.105 12.105 0 0 1 147.812 26.406 Q 146.328 27.402 144.619 28.057 Q 142.91 28.711 141.23 29.063 A 23.612 23.612 0 0 1 140.095 29.272 A 19.574 19.574 0 0 1 138.037 29.492 A 20.545 20.545 0 0 1 137.666 29.508 Q 136.389 29.551 135.449 29.414 A 1.674 1.674 0 0 0 135.498 29.504 Q 135.571 29.629 135.695 29.806 A 9.268 9.268 0 0 0 135.82 29.98 Q 135.961 30.172 136.126 30.384 A 29.297 29.297 0 0 0 136.455 30.801 Q 136.816 31.25 137.236 31.738 A 47.295 47.295 0 0 0 137.445 31.979 A 41.999 41.999 0 0 0 138.057 32.666 A 38.063 38.063 0 0 0 138.445 33.086 A 29.731 29.731 0 0 0 138.809 33.467 Q 139.072 33.738 139.259 33.904 A 3.598 3.598 0 0 0 139.375 34.004 A 12.069 12.069 0 0 0 140.737 33.925 A 14.771 14.771 0 0 0 142.832 33.525 A 20.431 20.431 0 0 0 146.396 32.217 A 22.175 22.175 0 0 0 149.727 30.264 A 19.888 19.888 0 0 0 150.494 29.691 A 17.213 17.213 0 0 0 152.51 27.842 A 13.778 13.778 0 0 0 153.213 27.02 A 11.395 11.395 0 0 0 154.424 25.146 A 7.194 7.194 0 0 0 154.752 24.405 A 5.774 5.774 0 0 0 155.137 22.363 Q 155.137 21.875 154.805 21.074 A 8.477 8.477 0 0 0 154.784 21.024 A 9.12 9.12 0 0 0 153.965 19.512 Q 153.457 18.75 152.871 18.203 A 2.964 2.964 0 0 0 152.555 17.944 Q 152.379 17.82 152.211 17.75 A 1.119 1.119 0 0 0 151.777 17.656 A 23.717 23.717 0 0 0 151.537 17.657 A 26.033 26.033 0 0 0 149.805 17.734 A 179.511 179.511 0 0 0 149.291 17.775 A 206.583 206.583 0 0 0 147.676 17.91 A 135.05 135.05 0 0 1 146.533 18.005 A 156.612 156.612 0 0 1 145.332 18.096 A 41.046 41.046 0 0 1 144.55 18.144 A 47.938 47.938 0 0 1 142.734 18.203 A 16.625 16.625 0 0 1 144.541 14.082 A 22.003 22.003 0 0 1 147.236 10.527 A 24.344 24.344 0 0 1 150.479 7.617 A 28.928 28.928 0 0 1 151.569 6.842 A 24.217 24.217 0 0 1 153.906 5.439 A 21.381 21.381 0 0 1 155.367 4.742 A 16.753 16.753 0 0 1 157.168 4.082 A 14.321 14.321 0 0 1 157.72 3.928 Q 158.946 3.613 159.922 3.613 Q 160.254 3.613 160.381 3.701 Q 160.508 3.789 160.566 4.004 A 0.952 0.952 0 0 1 160.574 4.051 Q 160.614 4.362 160.474 4.818 A 4.258 4.258 0 0 1 160.352 5.156 A 9.115 9.115 0 0 1 160.229 5.445 Q 160.084 5.769 159.898 6.124 A 16.578 16.578 0 0 1 159.541 6.768 A 18.375 18.375 0 0 1 159.09 7.501 A 22.817 22.817 0 0 1 158.32 8.613 A 46.625 46.625 0 0 1 156.885 10.469 A 27.943 27.943 0 0 1 156.338 11.119 A 23.149 23.149 0 0 1 155.439 12.1 A 20.282 20.282 0 0 1 155.113 12.427 Q 154.848 12.688 154.606 12.905 A 9.938 9.938 0 0 1 154.16 13.281 A 20.823 20.823 0 0 0 154.361 13.49 A 24.126 24.126 0 0 0 154.961 14.082 Q 155.391 14.492 155.82 14.893 A 258.948 258.948 0 0 0 156.238 15.281 A 214.712 214.712 0 0 0 156.631 15.645 A 424.443 424.443 0 0 1 156.858 15.855 Q 156.967 15.955 157.065 16.046 A 224.137 224.137 0 0 1 157.285 16.25 A 6.149 6.149 0 0 0 157.393 16.18 Q 157.758 15.939 158.129 15.621 A 10.296 10.296 0 0 0 158.799 14.99 A 15.98 15.98 0 0 0 159.182 14.584 A 18.223 18.223 0 0 0 160.293 13.232 A 24.213 24.213 0 0 0 161.66 11.191 A 24.776 24.776 0 0 0 161.972 10.657 A 21.507 21.507 0 0 0 162.783 9.082 A 16.575 16.575 0 0 0 163.163 8.197 A 12.943 12.943 0 0 0 163.535 7.119 A 8.731 8.731 0 0 0 163.656 6.665 Q 163.732 6.346 163.77 6.062 A 4.031 4.031 0 0 0 163.809 5.527 Q 163.809 5.469 163.781 5.349 A 2.925 2.925 0 0 0 163.76 5.264 A 7.956 7.956 0 0 0 163.652 4.893 A 5.556 5.556 0 0 0 163.594 4.717 A 4.058 4.058 0 0 0 163.535 4.561 A 13.563 13.563 0 0 0 163.532 4.552 Q 163.487 4.44 163.466 4.393 Z M 209.727 28.848 A 0.931 0.931 0 0 0 209.929 28.823 Q 210.128 28.778 210.39 28.653 A 4.056 4.056 0 0 0 210.508 28.594 A 10.145 10.145 0 0 0 210.956 28.345 Q 211.257 28.169 211.592 27.949 A 19.708 19.708 0 0 0 212.463 27.342 A 22.878 22.878 0 0 0 212.812 27.08 A 80.237 80.237 0 0 0 213.869 26.258 A 72.604 72.604 0 0 0 214.014 26.143 A 51.898 51.898 0 0 0 214.542 25.716 Q 214.791 25.513 215.01 25.327 A 31.476 31.476 0 0 0 215.039 25.303 A 222.481 222.481 0 0 1 215.25 25.124 Q 215.454 24.951 215.601 24.828 A 50.681 50.681 0 0 1 215.723 24.727 A 7.081 7.081 0 0 1 215.815 24.821 Q 215.958 24.97 216.14 25.173 A 27.404 27.404 0 0 1 216.143 25.176 A 58.322 58.322 0 0 0 216.379 25.439 A 47.123 47.123 0 0 0 216.602 25.684 A 27.142 27.142 0 0 1 216.249 26.029 Q 215.93 26.337 215.527 26.709 A 38.439 38.439 0 0 1 214.55 27.58 A 44.63 44.63 0 0 1 214.141 27.93 Q 213.398 28.555 212.598 29.16 A 25.938 25.938 0 0 1 211.515 29.937 A 22.179 22.179 0 0 1 211.035 30.254 A 12.569 12.569 0 0 1 210.32 30.681 Q 209.975 30.871 209.652 31.016 A 7.637 7.637 0 0 1 209.609 31.035 A 4.716 4.716 0 0 1 209.215 31.19 Q 208.812 31.326 208.506 31.328 A 1.395 1.395 0 0 1 208.496 31.328 A 1.842 1.842 0 0 1 208.174 31.298 Q 208.017 31.27 207.842 31.216 A 3.88 3.88 0 0 1 207.627 31.143 Q 207.129 30.957 206.67 30.674 A 4.2 4.2 0 0 1 206.197 30.337 A 3.414 3.414 0 0 1 205.889 30.049 Q 205.566 29.707 205.566 29.375 A 6.516 6.516 0 0 1 205.632 28.618 Q 205.685 28.238 205.782 27.815 A 12.564 12.564 0 0 1 205.879 27.422 A 32.341 32.341 0 0 1 206.379 25.719 A 36.084 36.084 0 0 1 206.572 25.137 A 46.803 46.803 0 0 1 207.432 22.822 A 94.841 94.841 0 0 1 207.847 21.805 Q 208.045 21.327 208.229 20.902 A 56.702 56.702 0 0 1 208.281 20.781 Q 208.125 20.82 207.676 21.211 Q 207.374 21.473 206.988 21.864 A 24.127 24.127 0 0 0 206.592 22.275 A 20.315 20.315 0 0 0 206.014 22.917 Q 205.628 23.364 205.205 23.896 Q 204.453 24.844 203.721 26.016 A 26.996 26.996 0 0 0 202.661 27.878 A 30.887 30.887 0 0 0 202.324 28.545 Q 201.66 29.902 201.211 31.406 A 1.028 1.028 0 0 1 201.17 31.529 Q 201.144 31.59 201.113 31.637 A 0.422 0.422 0 0 1 201.045 31.719 A 0.308 0.308 0 0 1 200.949 31.776 Q 200.858 31.812 200.721 31.816 A 1.236 1.236 0 0 1 200.684 31.816 A 0.541 0.541 0 0 1 200.576 31.804 Q 200.464 31.781 200.304 31.715 A 3.558 3.558 0 0 1 200.137 31.641 A 8.592 8.592 0 0 1 199.682 31.408 A 10.76 10.76 0 0 1 199.355 31.221 A 12.916 12.916 0 0 1 198.555 30.703 Q 198.274 30.506 198.073 30.34 A 3.95 3.95 0 0 1 197.93 30.215 A 3.293 3.293 0 0 1 197.835 30.099 Q 197.778 30.027 197.734 29.961 A 0.388 0.388 0 0 1 197.688 29.862 Q 197.658 29.766 197.656 29.629 A 1.363 1.363 0 0 1 197.656 29.609 A 9.919 9.919 0 0 1 197.716 28.563 Q 197.773 28.032 197.883 27.428 A 22.216 22.216 0 0 1 198.086 26.445 A 35.433 35.433 0 0 1 198.596 24.49 A 47.002 47.002 0 0 1 199.268 22.373 A 68.511 68.511 0 0 1 200.422 19.259 A 80.869 80.869 0 0 1 201.025 17.783 A 82.935 82.935 0 0 1 203.174 13.086 Q 204.316 10.781 205.557 8.701 A 47.154 47.154 0 0 1 206.787 6.743 A 35.235 35.235 0 0 1 207.998 5.029 A 22.377 22.377 0 0 1 208.958 3.839 Q 209.432 3.293 209.89 2.851 A 11.627 11.627 0 0 1 210.303 2.471 Q 211.406 1.504 212.324 1.445 A 3.399 3.399 0 0 1 212.89 1.677 A 4.271 4.271 0 0 1 213.232 1.875 Q 213.691 2.168 214.102 2.52 A 12.142 12.142 0 0 1 214.535 2.909 A 9.619 9.619 0 0 1 214.834 3.203 Q 215.045 3.421 215.194 3.597 A 3.871 3.871 0 0 1 215.332 3.77 A 0.831 0.831 0 0 1 215.466 4.043 A 1.021 1.021 0 0 1 215.488 4.141 Q 215.518 4.303 215.525 4.398 A 0.737 0.737 0 0 1 215.527 4.453 Q 215.527 5.156 215.137 6.191 A 14.763 14.763 0 0 1 214.735 7.146 Q 214.513 7.629 214.235 8.158 A 26.744 26.744 0 0 1 214.043 8.516 Q 213.34 9.805 212.334 11.279 A 53.347 53.347 0 0 1 210.777 13.439 A 62.045 62.045 0 0 1 210.107 14.307 Q 208.887 15.859 207.471 17.441 A 57.062 57.062 0 0 1 204.512 20.508 A 44.012 44.012 0 0 0 203.97 22.057 A 39.34 39.34 0 0 0 203.809 22.559 A 34.083 34.083 0 0 1 204.575 21.788 Q 205 21.374 205.392 21.026 A 18.672 18.672 0 0 1 205.742 20.723 Q 206.415 20.154 206.974 19.764 A 10.183 10.183 0 0 1 207.305 19.541 A 10.697 10.697 0 0 1 207.712 19.291 Q 207.923 19.168 208.111 19.075 A 4.27 4.27 0 0 1 208.467 18.916 Q 208.945 18.73 209.199 18.73 Q 209.375 18.73 209.824 18.955 A 9.433 9.433 0 0 1 210.386 19.261 A 11.692 11.692 0 0 1 210.762 19.492 A 10.32 10.32 0 0 1 211.447 19.969 A 8.966 8.966 0 0 1 211.66 20.137 A 4.175 4.175 0 0 1 211.846 20.295 Q 212.018 20.452 212.106 20.578 A 0.665 0.665 0 0 1 212.168 20.684 A 0.265 0.265 0 0 1 212.184 20.743 Q 212.195 20.819 212.173 20.924 A 0.915 0.915 0 0 1 212.168 20.947 Q 212.13 21.11 212.092 21.207 A 0.888 0.888 0 0 1 212.09 21.211 Q 211.914 21.738 211.67 22.432 A 108.18 108.18 0 0 1 211.416 23.145 A 127.864 127.864 0 0 1 211.143 23.896 A 108.937 108.937 0 0 0 210.586 25.449 Q 210.312 26.23 210.098 26.885 A 32.197 32.197 0 0 0 209.948 27.354 Q 209.832 27.726 209.746 28.037 Q 209.617 28.508 209.61 28.708 A 0.634 0.634 0 0 0 209.609 28.73 A 0.169 0.169 0 0 0 209.615 28.777 Q 209.63 28.829 209.683 28.843 A 0.173 0.173 0 0 0 209.727 28.848 Z M 69.687 21.328 L 69.023 23.281 A 31.819 31.819 0 0 1 69.79 22.364 Q 70.176 21.92 70.535 21.547 A 16.305 16.305 0 0 1 70.957 21.123 A 22.501 22.501 0 0 1 71.587 20.535 Q 71.885 20.269 72.154 20.051 A 10.303 10.303 0 0 1 72.51 19.775 Q 73.153 19.3 73.609 19.1 A 2.677 2.677 0 0 1 73.652 19.082 A 4.574 4.574 0 0 1 73.872 18.997 Q 74.18 18.887 74.355 18.887 A 0.986 0.986 0 0 1 74.65 18.935 Q 74.836 18.993 75.039 19.121 A 4.893 4.893 0 0 1 75.545 19.49 A 5.801 5.801 0 0 1 75.771 19.688 Q 76.133 20.02 76.445 20.371 Q 76.758 20.723 76.973 20.938 Q 77.187 21.152 77.236 21.396 A 2.533 2.533 0 0 1 77.285 21.895 Q 77.285 22.798 76.982 23.863 A 9.954 9.954 0 0 1 76.973 23.896 A 13.981 13.981 0 0 1 76.152 26.045 Q 75.645 27.109 75 28.066 Q 74.355 29.023 73.691 29.688 A 9.584 9.584 0 0 0 74.484 29.314 A 11.374 11.374 0 0 0 74.854 29.111 Q 75.449 28.77 76.035 28.379 Q 76.621 27.988 77.187 27.568 A 33.747 33.747 0 0 0 78.004 26.944 A 30.039 30.039 0 0 0 78.262 26.738 A 30.33 30.33 0 0 0 80.566 24.727 L 81.445 25.684 A 41.195 41.195 0 0 1 80.764 26.309 A 52.939 52.939 0 0 1 80.01 26.973 A 38.897 38.897 0 0 1 78.359 28.32 Q 77.5 28.984 76.611 29.59 A 27.583 27.583 0 0 1 75.527 30.293 A 22.698 22.698 0 0 1 74.902 30.664 Q 74.082 31.133 73.379 31.406 A 5.083 5.083 0 0 1 72.919 31.562 Q 72.687 31.627 72.481 31.656 A 2.242 2.242 0 0 1 72.168 31.68 Q 71.82 31.68 71.3 31.479 A 5.022 5.022 0 0 1 71.289 31.475 Q 70.762 31.27 70.264 30.977 A 5.243 5.243 0 0 1 69.747 30.632 A 4.185 4.185 0 0 1 69.404 30.342 Q 69.103 30.056 69.053 29.819 A 0.449 0.449 0 0 1 69.043 29.727 A 0.25 0.25 0 0 1 69.094 29.578 Q 69.145 29.507 69.248 29.443 Q 69.453 29.316 69.844 28.984 Q 70.217 28.668 70.732 28.048 A 15.901 15.901 0 0 0 70.781 27.988 Q 71.303 27.355 71.95 26.169 A 24.259 24.259 0 0 0 72.012 26.055 A 23.152 23.152 0 0 0 72.715 24.6 A 37.709 37.709 0 0 0 73.027 23.872 A 29.757 29.757 0 0 0 73.301 23.193 A 22.792 22.792 0 0 0 73.476 22.727 Q 73.61 22.36 73.701 22.061 Q 73.836 21.621 73.847 21.437 A 0.516 0.516 0 0 0 73.848 21.406 Q 73.848 21.269 73.818 21.197 A 0.177 0.177 0 0 0 73.799 21.162 Q 73.766 21.116 73.738 21.083 A 0.561 0.561 0 0 0 73.711 21.055 Q 73.645 21.038 73.593 21.05 A 0.182 0.182 0 0 0 73.574 21.055 Q 73.354 21.118 72.771 21.645 A 15.715 15.715 0 0 0 72.471 21.924 A 11.445 11.445 0 0 0 71.924 22.485 Q 71.293 23.176 70.527 24.189 Q 69.414 25.664 68.164 27.783 A 33.434 33.434 0 0 0 66.819 30.317 A 43.547 43.547 0 0 0 65.801 32.617 A 817.26 817.26 0 0 0 63.965 37.91 Q 63.047 40.586 62.168 43.242 L 57.207 44.414 A 233.814 233.814 0 0 1 59.561 38.018 A 1264.716 1264.716 0 0 0 61.982 31.67 Q 63.184 28.496 64.346 25.313 A 211.829 211.829 0 0 0 66.563 18.926 A 3.321 3.321 0 0 1 66.591 18.826 Q 66.62 18.731 66.647 18.67 A 0.554 0.554 0 0 1 66.67 18.623 Q 66.708 18.554 66.813 18.539 A 0.444 0.444 0 0 1 66.875 18.535 Q 67.085 18.601 67.357 18.741 A 6.023 6.023 0 0 1 67.637 18.896 A 8.155 8.155 0 0 1 68.415 19.418 A 9.039 9.039 0 0 1 68.525 19.502 A 9.035 9.035 0 0 1 69.04 19.933 A 7.624 7.624 0 0 1 69.316 20.195 Q 69.668 20.547 69.805 20.801 Q 69.844 20.859 69.795 21.006 L 69.687 21.328 Z M 198.926 24.648 L 199.805 25.684 Q 198.125 27.402 196.436 28.838 A 73.776 73.776 0 0 1 193.501 31.208 A 66.938 66.938 0 0 1 193.086 31.523 A 53.113 53.113 0 0 1 192.412 33.35 A 85.98 85.98 0 0 1 191.66 35.215 A 18.327 18.327 0 0 1 190.342 37.686 A 21.25 21.25 0 0 1 188.959 39.619 A 19.283 19.283 0 0 1 188.75 39.873 A 19.912 19.912 0 0 1 187.468 41.272 A 17.373 17.373 0 0 1 187.031 41.689 A 18.716 18.716 0 0 1 186.169 42.439 A 14.073 14.073 0 0 1 185.342 43.066 A 11.777 11.777 0 0 1 184.655 43.513 Q 184.228 43.77 183.838 43.945 A 4.727 4.727 0 0 1 183.425 44.11 Q 183.209 44.184 183.018 44.221 A 1.914 1.914 0 0 1 182.656 44.258 A 0.948 0.948 0 0 1 182.391 44.217 Q 182.163 44.15 181.893 43.976 A 3.125 3.125 0 0 1 181.875 43.965 A 4.245 4.245 0 0 1 181.235 43.449 A 5 5 0 0 1 181.025 43.232 A 4.931 4.931 0 0 1 180.342 42.275 A 2.586 2.586 0 0 1 180.158 41.863 Q 180.059 41.567 180.059 41.289 A 3.141 3.141 0 0 1 180.383 39.919 A 4.247 4.247 0 0 1 180.752 39.297 A 8.797 8.797 0 0 1 181.46 38.431 Q 181.979 37.867 182.666 37.285 A 32.182 32.182 0 0 1 183.969 36.24 Q 184.649 35.722 185.424 35.18 A 52.125 52.125 0 0 1 185.527 35.107 A 2252.299 2252.299 0 0 1 187.236 33.918 A 2832.41 2832.41 0 0 1 189.082 32.637 A 67.911 67.911 0 0 0 189.419 31.743 Q 189.566 31.346 189.724 30.907 A 124.038 124.038 0 0 0 190.049 29.99 Q 190.586 28.457 191.328 26.211 A 15.525 15.525 0 0 1 190.196 27.6 A 18.137 18.137 0 0 1 189.687 28.135 A 17.383 17.383 0 0 1 188.064 29.587 A 15.698 15.698 0 0 1 187.754 29.824 A 12.273 12.273 0 0 1 186.544 30.624 A 10.064 10.064 0 0 1 185.771 31.025 A 5.687 5.687 0 0 1 185.026 31.314 Q 184.623 31.436 184.251 31.471 A 3.099 3.099 0 0 1 183.965 31.484 Q 183.773 31.484 183.481 31.322 A 2.63 2.63 0 0 1 183.408 31.279 A 3.371 3.371 0 0 1 183.024 31.008 A 4.417 4.417 0 0 1 182.725 30.742 A 3.19 3.19 0 0 1 182.193 30.058 A 3.623 3.623 0 0 1 182.139 29.961 Q 181.895 29.512 181.895 29.004 A 3.354 3.354 0 0 1 181.938 28.483 Q 182.012 28.019 182.207 27.451 A 9.231 9.231 0 0 1 182.59 26.516 Q 182.817 26.036 183.115 25.528 A 3.267 3.267 0 0 0 183.115 25.527 A 15.854 15.854 0 0 1 183.959 24.243 A 19.569 19.569 0 0 1 184.561 23.457 A 15.67 15.67 0 0 1 186.475 21.475 Q 187.539 20.547 188.799 19.814 A 11.215 11.215 0 0 1 191.484 18.691 A 0.781 0.781 0 0 1 191.619 18.705 Q 191.809 18.738 192.09 18.857 A 9.297 9.297 0 0 1 192.861 19.229 Q 193.242 19.434 193.525 19.629 A 3.801 3.801 0 0 1 193.618 19.695 Q 193.791 19.822 193.807 19.873 A 0.033 0.033 0 0 1 193.809 19.883 A 0.07 0.07 0 0 1 193.803 19.909 Q 193.79 19.94 193.75 19.98 A 0.346 0.346 0 0 1 193.732 19.989 Q 193.706 20 193.691 20 A 13.444 13.444 0 0 0 193.451 20.15 Q 193.12 20.361 192.685 20.661 A 43.528 43.528 0 0 0 192.539 20.762 A 27.603 27.603 0 0 0 191.816 21.282 A 34.554 34.554 0 0 0 191.055 21.865 Q 190.273 22.48 189.492 23.184 Q 188.711 23.887 188.076 24.58 Q 187.441 25.273 187.051 25.908 Q 186.783 26.343 186.699 26.718 A 1.516 1.516 0 0 0 186.66 27.051 A 0.589 0.589 0 0 0 186.68 27.207 A 0.477 0.477 0 0 0 186.748 27.354 A 0.286 0.286 0 0 0 186.956 27.477 A 0.432 0.432 0 0 0 187.012 27.48 A 1.691 1.691 0 0 0 187.446 27.42 Q 187.642 27.368 187.854 27.271 A 3.673 3.673 0 0 0 188.115 27.139 A 6.962 6.962 0 0 0 188.797 26.703 A 9.176 9.176 0 0 0 189.375 26.25 A 16.44 16.44 0 0 0 190.322 25.378 A 19.054 19.054 0 0 0 190.664 25.029 A 44.389 44.389 0 0 0 191.74 23.865 A 40.111 40.111 0 0 0 191.885 23.701 A 35.816 35.816 0 0 0 192.429 23.069 A 27.056 27.056 0 0 0 192.91 22.48 Q 193.254 22.047 193.484 21.739 A 14.457 14.457 0 0 0 193.613 21.563 A 0.786 0.786 0 0 0 193.658 21.514 A 0.653 0.653 0 0 0 193.682 21.484 A 0.254 0.254 0 0 1 193.71 21.453 Q 193.725 21.439 193.744 21.424 A 0.542 0.542 0 0 1 193.77 21.406 Q 193.926 21.445 194.189 21.797 Q 194.453 22.148 194.707 22.607 A 9.082 9.082 0 0 1 195.075 23.347 A 8.111 8.111 0 0 1 195.146 23.516 A 4.992 4.992 0 0 1 195.225 23.718 Q 195.329 24.004 195.332 24.152 A 0.429 0.429 0 0 1 195.332 24.16 L 195.332 24.199 A 0.062 0.062 0 0 1 195.331 24.21 Q 195.326 24.235 195.304 24.304 A 4.073 4.073 0 0 1 195.293 24.336 A 25.949 25.949 0 0 0 195.178 24.712 Q 195.052 25.135 194.895 25.703 A 94.474 94.474 0 0 0 194.746 26.25 A 54.349 54.349 0 0 1 194.422 27.398 Q 194.249 27.985 194.046 28.639 A 96.795 96.795 0 0 1 193.906 29.082 A 77.521 77.521 0 0 0 196.416 26.992 A 48.523 48.523 0 0 0 198.769 24.804 A 52.957 52.957 0 0 0 198.926 24.648 Z M 250.051 3.766 A 605.07 605.07 0 0 0 250.41 3.32 Q 250.059 2.832 249.785 2.471 A 207.116 207.116 0 0 1 249.248 1.758 A 27.357 27.357 0 0 0 248.972 1.396 A 33.224 33.224 0 0 0 248.672 1.016 A 96.533 96.533 0 0 0 248.465 0.758 Q 248.225 0.46 247.93 0.098 A 3908.081 3908.081 0 0 1 245.435 3.452 A 3006.336 3006.336 0 0 1 243.145 6.523 A 1316.94 1316.94 0 0 1 241.013 9.37 A 1106.793 1106.793 0 0 1 238.994 12.051 A 491.385 491.385 0 0 1 238.02 13.336 A 436.425 436.425 0 0 1 235.186 17.021 A 415.303 415.303 0 0 1 231.406 21.807 A 374.872 374.872 0 0 1 230.92 22.412 A 415.615 415.615 0 0 1 227.363 26.768 A 571.694 571.694 0 0 1 225.161 29.412 A 714.319 714.319 0 0 1 222.773 32.246 L 223.203 32.783 Q 223.398 33.027 223.594 33.281 A 17.454 17.454 0 0 0 223.799 33.542 A 21.455 21.455 0 0 0 224.023 33.818 Q 224.17 33.995 224.347 34.214 A 70.365 70.365 0 0 1 224.57 34.492 A 70.702 70.702 0 0 0 224.774 34.266 Q 225.663 33.276 226.982 31.738 A 421.21 421.21 0 0 0 228.538 29.915 A 576.599 576.599 0 0 0 230.254 27.881 Q 232.051 25.742 234.062 23.311 A 5585.188 5585.188 0 0 0 238.105 18.418 Q 240.137 15.957 242.07 13.584 A 14879.408 14879.408 0 0 1 243.931 11.301 A 11623.581 11623.581 0 0 1 245.645 9.199 A 1627.522 1627.522 0 0 0 246.098 8.643 Q 246.766 7.823 247.364 7.087 A 917.776 917.776 0 0 0 248.525 5.654 A 2601.592 2601.592 0 0 0 249.074 4.976 Q 249.642 4.274 250.051 3.766 Z M 120.566 16.934 L 117.812 16.934 L 117.793 16.934 Q 117.776 16.934 117.774 16.903 A 0.131 0.131 0 0 1 117.773 16.895 A 0.455 0.455 0 0 1 117.78 16.82 Q 117.794 16.741 117.832 16.631 A 2.336 2.336 0 0 1 117.861 16.553 A 4.507 4.507 0 0 1 117.986 16.264 A 5.491 5.491 0 0 1 118.076 16.084 Q 118.203 15.84 118.369 15.635 A 1.325 1.325 0 0 1 118.472 15.521 Q 118.584 15.411 118.691 15.371 L 121.23 15.254 A 112.118 112.118 0 0 1 121.765 13.977 A 88.716 88.716 0 0 1 122.275 12.803 Q 122.618 12.031 122.909 11.411 A 42.122 42.122 0 0 1 123.164 10.879 A 37.933 37.933 0 0 0 123.264 10.657 A 45.574 45.574 0 0 0 123.369 10.42 A 1.823 1.823 0 0 1 123.521 10.145 A 2.394 2.394 0 0 1 123.682 9.932 Q 123.887 9.688 124.229 9.424 A 3.385 3.385 0 0 1 124.516 9.227 Q 124.669 9.132 124.852 9.036 A 7.646 7.646 0 0 1 125.156 8.887 A 11.816 11.816 0 0 1 125.505 8.72 Q 125.7 8.63 125.923 8.535 A 23.109 23.109 0 0 1 126.201 8.418 Q 126.816 8.164 127.412 7.949 A 24.806 24.806 0 0 1 127.972 7.754 Q 128.24 7.665 128.481 7.593 A 15.003 15.003 0 0 1 128.496 7.588 A 6.666 6.666 0 0 1 128.723 7.524 Q 128.928 7.47 129.068 7.451 A 1.009 1.009 0 0 1 129.198 7.441 A 0.746 0.746 0 0 1 129.261 7.444 Q 129.36 7.452 129.386 7.49 A 0.052 0.052 0 0 1 129.395 7.52 L 129.395 7.559 A 0.044 0.044 0 0 1 129.393 7.569 Q 129.387 7.594 129.356 7.654 A 1.84 1.84 0 0 1 129.355 7.656 A 2.839 2.839 0 0 0 129.295 7.764 Q 129.17 7.995 128.926 8.506 A 115.434 115.434 0 0 0 128.76 8.854 Q 128.507 9.389 128.176 10.099 A 322.17 322.17 0 0 0 128.154 10.146 A 105.689 105.689 0 0 0 127.703 11.131 Q 127.434 11.723 127.139 12.393 A 126.595 126.595 0 0 0 126.575 13.689 A 147.263 147.263 0 0 0 125.996 15.059 L 130.684 14.883 Q 130.879 14.883 130.801 15.117 Q 130.745 15.284 130.621 15.489 A 3.559 3.559 0 0 1 130.508 15.664 A 7.255 7.255 0 0 1 130.217 16.057 A 8.952 8.952 0 0 1 130.01 16.309 Q 129.739 16.625 129.549 16.8 A 2.518 2.518 0 0 1 129.531 16.816 A 0.166 0.166 0 0 1 129.504 16.838 Q 129.474 16.857 129.425 16.876 A 0.994 0.994 0 0 1 129.375 16.895 A 0.682 0.682 0 0 1 129.27 16.92 Q 129.186 16.934 129.082 16.934 L 125.215 16.934 A 99.069 99.069 0 0 0 123.867 20.371 A 91.854 91.854 0 0 0 123.115 22.475 A 76.559 76.559 0 0 0 122.715 23.672 A 40.167 40.167 0 0 0 122.258 25.171 A 29.699 29.699 0 0 0 121.904 26.543 A 15.777 15.777 0 0 0 121.745 27.315 Q 121.604 28.101 121.602 28.673 A 4.697 4.697 0 0 0 121.602 28.691 A 0.169 0.169 0 0 0 121.607 28.738 Q 121.622 28.79 121.675 28.804 A 0.173 0.173 0 0 0 121.719 28.809 A 0.57 0.57 0 0 0 121.852 28.79 Q 122.051 28.742 122.363 28.564 A 7.897 7.897 0 0 0 122.701 28.361 Q 122.884 28.244 123.084 28.105 A 14.539 14.539 0 0 0 123.33 27.93 A 42.944 42.944 0 0 0 123.884 27.52 A 53.156 53.156 0 0 0 124.473 27.07 A 38.547 38.547 0 0 0 125.348 26.373 A 34.685 34.685 0 0 0 125.625 26.143 A 95.859 95.859 0 0 0 126.145 25.703 A 70.52 70.52 0 0 0 126.611 25.303 A 95.315 95.315 0 0 1 126.818 25.124 Q 127.018 24.951 127.164 24.828 A 22.335 22.335 0 0 1 127.285 24.727 A 7.081 7.081 0 0 1 127.377 24.821 Q 127.521 24.97 127.702 25.173 A 27.404 27.404 0 0 1 127.705 25.176 A 58.322 58.322 0 0 0 127.942 25.439 A 47.123 47.123 0 0 0 128.164 25.684 A 45.76 45.76 0 0 1 127.812 26.032 Q 127.493 26.344 127.09 26.729 A 33.509 33.509 0 0 1 126.153 27.588 A 39.229 39.229 0 0 1 125.693 27.988 A 55.017 55.017 0 0 1 124.131 29.277 A 23.333 23.333 0 0 1 123.133 30.03 A 19.644 19.644 0 0 1 122.549 30.43 A 14.063 14.063 0 0 1 121.849 30.863 Q 121.466 31.084 121.113 31.25 Q 120.464 31.555 120.021 31.562 A 1.312 1.312 0 0 1 120 31.563 A 0.985 0.985 0 0 1 119.772 31.533 Q 119.5 31.468 119.131 31.26 A 6.248 6.248 0 0 1 118.285 30.684 A 7.15 7.15 0 0 1 118.086 30.518 A 7.162 7.162 0 0 1 117.478 29.928 A 6.024 6.024 0 0 1 117.207 29.609 A 2.753 2.753 0 0 1 117.036 29.37 Q 116.875 29.114 116.844 28.907 A 0.655 0.655 0 0 1 116.836 28.809 A 3.289 3.289 0 0 1 116.859 28.449 Q 116.901 28.07 117.022 27.525 A 19.234 19.234 0 0 1 117.158 26.953 A 37.908 37.908 0 0 1 117.479 25.773 Q 117.653 25.171 117.864 24.504 A 66.524 66.524 0 0 1 118.008 24.053 A 93.426 93.426 0 0 1 118.572 22.366 A 115.45 115.45 0 0 1 119.209 20.566 A 206.053 206.053 0 0 1 120.566 16.934 Z M 45.254 20.313 L 45.801 18.77 A 0.231 0.231 0 0 1 45.873 18.667 Q 45.94 18.613 46.055 18.613 A 0.292 0.292 0 0 1 46.13 18.626 Q 46.254 18.66 46.493 18.789 A 6.583 6.583 0 0 1 46.65 18.877 A 16.464 16.464 0 0 1 47.124 19.16 A 20.879 20.879 0 0 1 47.627 19.482 A 11.487 11.487 0 0 1 48.175 19.867 A 9.169 9.169 0 0 1 48.555 20.166 A 5.666 5.666 0 0 1 48.695 20.287 Q 48.972 20.533 49.004 20.645 Q 49.004 20.701 48.986 20.84 A 5.551 5.551 0 0 1 48.984 20.85 A 1.415 1.415 0 0 1 48.967 20.953 Q 48.95 21.033 48.926 21.094 A 80.314 80.314 0 0 0 48.771 21.515 Q 48.703 21.702 48.63 21.907 A 143.44 143.44 0 0 0 48.477 22.334 Q 48.223 23.047 47.959 23.818 A 108.435 108.435 0 0 0 47.441 25.371 A 91.414 91.414 0 0 0 47.2 26.125 A 72.595 72.595 0 0 0 46.982 26.826 A 28.75 28.75 0 0 0 46.818 27.386 Q 46.746 27.641 46.688 27.869 A 15.708 15.708 0 0 0 46.65 28.018 A 8.132 8.132 0 0 0 46.595 28.259 Q 46.545 28.491 46.53 28.646 A 1.282 1.282 0 0 0 46.523 28.77 A 0.169 0.169 0 0 0 46.529 28.816 Q 46.544 28.868 46.597 28.882 A 0.173 0.173 0 0 0 46.641 28.887 A 0.552 0.552 0 0 0 46.771 28.869 Q 46.906 28.836 47.096 28.74 A 3.776 3.776 0 0 0 47.295 28.633 A 11.366 11.366 0 0 0 47.642 28.423 Q 47.833 28.304 48.042 28.164 A 21.277 21.277 0 0 0 48.301 27.988 A 22.451 22.451 0 0 0 48.882 27.573 A 27.782 27.782 0 0 0 49.492 27.109 A 88.303 88.303 0 0 0 50.397 26.393 A 77.734 77.734 0 0 0 50.684 26.162 A 64.061 64.061 0 0 0 51.223 25.72 A 48.172 48.172 0 0 0 51.709 25.313 A 189.524 189.524 0 0 1 51.924 25.129 Q 52.132 24.953 52.28 24.829 A 41.082 41.082 0 0 1 52.402 24.727 A 7.081 7.081 0 0 1 52.495 24.821 Q 52.638 24.97 52.819 25.173 A 27.404 27.404 0 0 1 52.822 25.176 A 58.322 58.322 0 0 0 53.059 25.439 A 47.123 47.123 0 0 0 53.281 25.684 Q 52.852 26.113 52.197 26.719 Q 51.543 27.324 50.771 27.979 A 40.681 40.681 0 0 1 49.17 29.268 A 24.767 24.767 0 0 1 48.151 30.008 A 20.664 20.664 0 0 1 47.559 30.4 Q 46.777 30.898 46.094 31.211 Q 45.443 31.509 45.004 31.523 A 1.341 1.341 0 0 1 44.961 31.523 A 1.284 1.284 0 0 1 44.655 31.484 Q 44.515 31.45 44.362 31.385 A 2.578 2.578 0 0 1 44.219 31.318 A 3.523 3.523 0 0 1 43.459 30.801 A 3.95 3.95 0 0 1 43.447 30.791 A 3.291 3.291 0 0 1 42.842 30.078 Q 42.598 29.688 42.598 29.336 Q 42.598 29.056 42.785 28.323 A 18.46 18.46 0 0 1 42.832 28.145 Q 43.066 27.266 43.398 26.094 A 28.178 28.178 0 0 1 42.529 27.214 A 21.519 21.519 0 0 1 41.68 28.193 A 33.287 33.287 0 0 1 40.971 28.938 Q 40.642 29.272 40.337 29.56 A 18.969 18.969 0 0 1 40.137 29.746 A 24.849 24.849 0 0 1 39.634 30.195 Q 39.236 30.541 38.906 30.791 Q 38.379 31.191 38.125 31.367 A 1.067 1.067 0 0 1 37.925 31.464 A 1.407 1.407 0 0 1 37.754 31.514 A 2.129 2.129 0 0 1 37.561 31.549 Q 37.463 31.562 37.375 31.562 A 1.281 1.281 0 0 1 37.363 31.563 A 1.455 1.455 0 0 1 37.005 31.515 Q 36.785 31.459 36.543 31.338 A 3.939 3.939 0 0 1 35.713 30.781 Q 35.332 30.449 35.068 30.039 A 1.943 1.943 0 0 1 34.908 29.737 Q 34.805 29.49 34.805 29.258 Q 34.805 28.835 35.079 27.865 A 17.874 17.874 0 0 1 35.088 27.832 A 33.094 33.094 0 0 1 35.328 27.03 Q 35.551 26.316 35.85 25.449 A 105.564 105.564 0 0 1 36.352 24.028 Q 36.622 23.28 36.931 22.454 A 171.75 171.75 0 0 1 36.973 22.344 Q 37.617 20.625 38.359 18.73 Q 38.398 18.633 38.428 18.643 A 0.126 0.126 0 0 0 38.445 18.647 Q 38.477 18.652 38.535 18.652 Q 38.845 18.701 39.346 18.88 A 11.017 11.017 0 0 1 39.551 18.955 A 16.632 16.632 0 0 1 40.811 19.492 A 17.597 17.597 0 0 1 41.317 19.743 Q 41.546 19.861 41.745 19.974 A 9.839 9.839 0 0 1 41.875 20.049 Q 42.293 20.294 42.322 20.396 A 0.052 0.052 0 0 1 42.324 20.41 Q 42.269 20.538 42.052 20.991 A 92.471 92.471 0 0 1 42.021 21.055 Q 41.777 21.563 41.455 22.275 A 108.351 108.351 0 0 0 41.123 23.018 A 134.842 134.842 0 0 0 40.771 23.818 A 57.676 57.676 0 0 0 40.425 24.631 A 49.689 49.689 0 0 0 40.107 25.41 Q 39.805 26.172 39.609 26.787 A 7.532 7.532 0 0 0 39.524 27.075 Q 39.414 27.476 39.414 27.695 A 0.112 0.112 0 0 0 39.418 27.726 Q 39.428 27.761 39.463 27.77 A 0.115 0.115 0 0 0 39.492 27.773 A 0.248 0.248 0 0 0 39.577 27.754 Q 39.763 27.682 40.176 27.354 A 5.649 5.649 0 0 0 40.529 27.044 Q 40.944 26.653 41.475 26.035 Q 42.246 25.137 43.223 23.721 Q 44.062 22.504 44.959 20.861 A 48.13 48.13 0 0 0 45.254 20.313 Z M 176.367 21.523 L 176.328 21.563 A 13.742 13.742 0 0 1 176.065 21.871 Q 175.74 22.241 175.264 22.744 A 17.358 17.358 0 0 0 174.718 23.351 Q 174.241 23.905 173.691 24.619 A 24.131 24.131 0 0 0 172.904 25.709 Q 172.515 26.277 172.109 26.929 A 42.319 42.319 0 0 0 171.836 27.373 A 24.821 24.821 0 0 0 170.929 29.015 Q 170.484 29.893 170.047 30.901 A 41.838 41.838 0 0 0 169.922 31.191 Q 169.807 31.459 169.711 31.614 A 1.519 1.519 0 0 1 169.707 31.621 A 0.301 0.301 0 0 1 169.555 31.742 Q 169.5 31.764 169.431 31.772 A 0.8 0.8 0 0 1 169.336 31.777 A 1.438 1.438 0 0 1 169.029 31.742 Q 168.885 31.71 168.729 31.651 A 2.872 2.872 0 0 1 168.584 31.592 A 4.835 4.835 0 0 1 168.078 31.33 A 6.069 6.069 0 0 1 167.725 31.104 A 11.109 11.109 0 0 1 166.983 30.544 A 12.444 12.444 0 0 1 166.846 30.43 A 10.453 10.453 0 0 1 166.331 29.966 A 8.755 8.755 0 0 1 166.055 29.688 A 0.614 0.614 0 0 1 166.058 29.628 Q 166.074 29.481 166.149 29.092 A 25.464 25.464 0 0 1 166.162 29.023 A 23.758 23.758 0 0 1 166.221 28.732 Q 166.318 28.269 166.465 27.646 Q 166.633 26.933 166.873 26.047 A 72.655 72.655 0 0 1 166.953 25.752 A 58.351 58.351 0 0 1 167.393 24.238 A 68.471 68.471 0 0 1 167.617 23.516 A 64.966 64.966 0 0 1 168.421 21.142 A 64.343 64.343 0 0 1 168.428 21.123 Q 168.867 19.902 169.375 18.77 A 25.097 25.097 0 0 1 170.185 19.174 Q 170.607 19.394 171.068 19.652 A 41.995 41.995 0 0 1 171.201 19.727 A 10.771 10.771 0 0 1 173.066 21.055 Q 172.832 21.68 172.598 22.324 Q 172.363 22.969 172.129 23.652 A 73.617 73.617 0 0 1 172.723 22.982 Q 173.554 22.055 174.205 21.401 A 25.835 25.835 0 0 1 174.248 21.357 Q 174.845 20.76 175.319 20.335 A 13.883 13.883 0 0 1 175.752 19.961 Q 176.285 19.521 176.642 19.323 A 2.257 2.257 0 0 1 176.748 19.268 Q 177.129 19.082 177.344 19.082 Q 177.598 19.082 178.105 19.336 A 7.197 7.197 0 0 1 178.808 19.74 A 8.567 8.567 0 0 1 179.131 19.961 A 7.44 7.44 0 0 1 179.67 20.385 A 5.895 5.895 0 0 1 180.029 20.723 Q 180.41 21.113 180.41 21.406 Q 180.41 21.446 180.401 21.499 A 1.065 1.065 0 0 1 180.391 21.553 A 2.355 2.355 0 0 1 180.38 21.6 Q 180.364 21.664 180.34 21.749 A 7.114 7.114 0 0 1 180.332 21.777 A 21.411 21.411 0 0 1 180.202 22.168 Q 180.084 22.515 179.932 22.93 A 102.62 102.62 0 0 1 179.549 23.953 A 114.928 114.928 0 0 1 179.414 24.307 L 178.867 25.732 A 45.269 45.269 0 0 0 178.608 26.423 A 36.462 36.462 0 0 0 178.379 27.07 A 32.509 32.509 0 0 0 178.229 27.517 Q 178.171 27.694 178.12 27.856 A 17.909 17.909 0 0 0 178.027 28.164 Q 177.922 28.525 177.898 28.735 A 0.994 0.994 0 0 0 177.891 28.848 A 0.169 0.169 0 0 0 177.896 28.894 Q 177.911 28.946 177.964 28.96 A 0.173 0.173 0 0 0 178.008 28.965 A 0.55 0.55 0 0 0 178.141 28.946 Q 178.34 28.895 178.652 28.711 Q 178.981 28.517 179.385 28.231 A 17.121 17.121 0 0 0 179.639 28.047 A 31.582 31.582 0 0 0 180.354 27.504 A 37.646 37.646 0 0 0 180.801 27.148 A 48.425 48.425 0 0 0 181.893 26.241 A 44.416 44.416 0 0 0 181.963 26.182 Q 182.52 25.703 182.969 25.313 Q 183.418 24.922 183.652 24.727 Q 183.802 24.861 183.974 25.053 A 6.932 6.932 0 0 1 184.082 25.176 Q 184.316 25.449 184.531 25.684 A 45.76 45.76 0 0 1 184.179 26.032 Q 183.86 26.344 183.457 26.729 A 33.509 33.509 0 0 1 182.52 27.588 A 39.229 39.229 0 0 1 182.061 27.988 A 55.017 55.017 0 0 1 180.498 29.277 A 24.999 24.999 0 0 1 179.504 30.03 A 20.765 20.765 0 0 1 178.926 30.43 A 13.271 13.271 0 0 1 178.211 30.876 Q 177.865 31.076 177.543 31.23 A 8.069 8.069 0 0 1 177.5 31.25 Q 176.851 31.555 176.407 31.562 A 1.312 1.312 0 0 1 176.387 31.563 A 1.106 1.106 0 0 1 176.17 31.539 Q 175.956 31.496 175.684 31.375 A 3.884 3.884 0 0 1 175.645 31.357 A 5.124 5.124 0 0 1 174.775 30.85 A 3.669 3.669 0 0 1 174.237 30.379 A 3.229 3.229 0 0 1 174.062 30.176 A 1.662 1.662 0 0 1 173.896 29.923 Q 173.77 29.684 173.77 29.453 Q 173.921 28.765 174.165 27.918 A 35.494 35.494 0 0 1 174.248 27.637 A 74.259 74.259 0 0 1 174.88 25.623 A 80.873 80.873 0 0 1 174.902 25.557 A 73.149 73.149 0 0 1 175.635 23.447 Q 176.016 22.402 176.367 21.523 Z M 105.488 24.727 L 106.445 25.684 A 41.379 41.379 0 0 1 104.806 27.207 Q 104.015 27.901 103.269 28.472 A 24.524 24.524 0 0 1 103.057 28.633 A 23.648 23.648 0 0 1 101.513 29.7 A 17.312 17.312 0 0 1 100.02 30.547 A 14.683 14.683 0 0 1 98.606 31.167 A 11.254 11.254 0 0 1 97.256 31.582 A 11.415 11.415 0 0 1 95.238 31.88 A 10.194 10.194 0 0 1 94.688 31.895 A 1.706 1.706 0 0 1 94.206 31.82 Q 94.002 31.76 93.783 31.652 A 3.657 3.657 0 0 1 93.516 31.504 A 6.354 6.354 0 0 1 92.314 30.557 A 6.635 6.635 0 0 1 91.637 29.768 A 5.709 5.709 0 0 1 91.387 29.395 Q 91.016 28.789 91.016 28.359 A 10.17 10.17 0 0 1 91.171 26.55 A 8.403 8.403 0 0 1 91.455 25.42 A 10.053 10.053 0 0 1 92.274 23.561 A 8.948 8.948 0 0 1 92.617 23.008 A 9.86 9.86 0 0 1 94.268 21.113 A 10.75 10.75 0 0 1 95.765 19.998 A 9.626 9.626 0 0 1 96.201 19.746 A 9.883 9.883 0 0 1 97.58 19.123 A 8.502 8.502 0 0 1 98.203 18.926 A 8.208 8.208 0 0 1 99.131 18.725 A 5.999 5.999 0 0 1 100.039 18.652 A 2.208 2.208 0 0 1 100.904 18.834 A 2.818 2.818 0 0 1 101.24 19.004 Q 101.836 19.355 102.324 19.863 A 5.242 5.242 0 0 1 102.885 20.551 A 4.491 4.491 0 0 1 103.115 20.928 A 3.336 3.336 0 0 1 103.275 21.261 Q 103.346 21.436 103.382 21.594 A 1.361 1.361 0 0 1 103.418 21.895 Q 103.418 22.559 102.861 23.252 A 5.762 5.762 0 0 1 102.333 23.82 Q 102.058 24.082 101.719 24.348 A 11.538 11.538 0 0 1 101.289 24.668 Q 100.273 25.391 98.848 26.143 A 45.786 45.786 0 0 1 97.349 26.897 A 57.662 57.662 0 0 1 95.703 27.656 Q 95.645 28.125 95.645 28.574 A 2.171 2.171 0 0 0 95.661 28.853 Q 95.7 29.155 95.833 29.319 A 0.517 0.517 0 0 0 95.908 29.395 A 0.703 0.703 0 0 0 96.105 29.503 Q 96.31 29.58 96.634 29.601 A 4.027 4.027 0 0 0 96.895 29.609 Q 98.184 29.609 99.326 29.18 Q 100.469 28.75 101.523 28.066 Q 102.578 27.383 103.555 26.504 Q 104.531 25.625 105.488 24.727 Z M 118.086 24.727 L 119.043 25.684 A 41.379 41.379 0 0 1 117.403 27.207 Q 116.613 27.901 115.867 28.472 A 24.524 24.524 0 0 1 115.654 28.633 A 23.648 23.648 0 0 1 114.111 29.7 A 17.312 17.312 0 0 1 112.617 30.547 A 14.683 14.683 0 0 1 111.204 31.167 A 11.254 11.254 0 0 1 109.854 31.582 A 11.415 11.415 0 0 1 107.835 31.88 A 10.194 10.194 0 0 1 107.285 31.895 A 1.706 1.706 0 0 1 106.804 31.82 Q 106.6 31.76 106.381 31.652 A 3.657 3.657 0 0 1 106.113 31.504 A 6.354 6.354 0 0 1 104.912 30.557 A 6.635 6.635 0 0 1 104.234 29.768 A 5.709 5.709 0 0 1 103.984 29.395 Q 103.613 28.789 103.613 28.359 A 10.17 10.17 0 0 1 103.768 26.55 A 8.403 8.403 0 0 1 104.053 25.42 A 10.053 10.053 0 0 1 104.871 23.561 A 8.948 8.948 0 0 1 105.215 23.008 A 9.86 9.86 0 0 1 106.865 21.113 A 10.75 10.75 0 0 1 108.363 19.998 A 9.626 9.626 0 0 1 108.799 19.746 A 9.883 9.883 0 0 1 110.177 19.123 A 8.502 8.502 0 0 1 110.801 18.926 A 8.208 8.208 0 0 1 111.729 18.725 A 5.999 5.999 0 0 1 112.637 18.652 A 2.208 2.208 0 0 1 113.502 18.834 A 2.818 2.818 0 0 1 113.838 19.004 Q 114.434 19.355 114.922 19.863 A 5.242 5.242 0 0 1 115.483 20.551 A 4.491 4.491 0 0 1 115.713 20.928 A 3.336 3.336 0 0 1 115.873 21.261 Q 115.944 21.436 115.98 21.594 A 1.361 1.361 0 0 1 116.016 21.895 Q 116.016 22.559 115.459 23.252 A 5.762 5.762 0 0 1 114.931 23.82 Q 114.655 24.082 114.316 24.348 A 11.538 11.538 0 0 1 113.887 24.668 Q 112.871 25.391 111.445 26.143 A 45.786 45.786 0 0 1 109.946 26.897 A 57.662 57.662 0 0 1 108.301 27.656 Q 108.242 28.125 108.242 28.574 A 2.171 2.171 0 0 0 108.259 28.853 Q 108.298 29.155 108.431 29.319 A 0.517 0.517 0 0 0 108.506 29.395 A 0.703 0.703 0 0 0 108.703 29.503 Q 108.907 29.58 109.231 29.601 A 4.027 4.027 0 0 0 109.492 29.609 Q 110.781 29.609 111.924 29.18 Q 113.066 28.75 114.121 28.066 Q 115.176 27.383 116.152 26.504 Q 117.129 25.625 118.086 24.727 Z M 52.93 26.094 L 51.992 25.137 Q 52.341 24.801 52.787 24.368 A 426.712 426.712 0 0 0 53.213 23.955 Q 53.926 23.262 54.609 22.559 A 22.592 22.592 0 0 1 54.146 22.273 A 17.018 17.018 0 0 1 53.73 22.002 Q 53.431 21.8 53.201 21.627 A 8.026 8.026 0 0 1 53.066 21.523 A 21.555 21.555 0 0 1 52.772 21.312 Q 52.615 21.198 52.48 21.094 Q 52.384 21.045 52.367 20.904 A 0.542 0.542 0 0 1 52.363 20.84 A 0.794 0.794 0 0 1 52.376 20.704 Q 52.401 20.561 52.474 20.365 A 3.921 3.921 0 0 1 52.529 20.225 A 7.427 7.427 0 0 1 52.717 19.81 A 9.887 9.887 0 0 1 52.949 19.365 A 24.331 24.331 0 0 1 53.423 18.547 A 26.899 26.899 0 0 1 53.496 18.428 A 19.176 19.176 0 0 1 53.784 17.971 A 15.025 15.025 0 0 1 54.062 17.559 Q 54.248 17.293 54.403 17.095 A 6.086 6.086 0 0 1 54.541 16.924 Q 54.746 16.68 54.805 16.68 A 0.096 0.096 0 0 1 54.826 16.683 Q 54.886 16.698 55.068 16.777 A 8.87 8.87 0 0 1 55.3 16.882 A 11.066 11.066 0 0 1 55.547 17.002 A 3.358 3.358 0 0 1 55.961 17.247 A 3.056 3.056 0 0 1 56.016 17.285 A 1.855 1.855 0 0 1 56.119 17.365 Q 56.213 17.445 56.261 17.513 A 0.353 0.353 0 0 1 56.289 17.559 A 0.873 0.873 0 0 1 56.298 17.612 Q 56.309 17.698 56.321 17.862 A 12.035 12.035 0 0 1 56.328 17.969 Q 56.342 18.184 56.355 18.463 A 58.809 58.809 0 0 1 56.367 18.73 A 21.008 21.008 0 0 1 57.519 19.369 A 24.283 24.283 0 0 1 57.93 19.619 Q 58.73 20.117 59.395 20.566 A 27.122 27.122 0 0 1 60.791 21.536 A 24.843 24.843 0 0 1 60.879 21.602 A 0.881 0.881 0 0 1 61.043 21.73 A 0.612 0.612 0 0 1 61.201 21.992 A 0.978 0.978 0 0 1 61.228 22.11 Q 61.25 22.246 61.223 22.358 A 0.504 0.504 0 0 1 61.211 22.402 Q 60.993 23.057 60.681 23.87 A 51.966 51.966 0 0 1 60.576 24.141 A 156.68 156.68 0 0 0 59.844 26.055 A 44.363 44.363 0 0 0 59.528 26.922 Q 59.384 27.334 59.264 27.705 A 26.784 26.784 0 0 0 59.248 27.754 Q 59.006 28.509 59.004 28.842 A 0.923 0.923 0 0 0 59.004 28.848 A 0.169 0.169 0 0 0 59.01 28.894 Q 59.025 28.946 59.078 28.96 A 0.173 0.173 0 0 0 59.121 28.965 A 0.55 0.55 0 0 0 59.255 28.946 Q 59.453 28.895 59.766 28.711 Q 60.095 28.517 60.498 28.231 A 17.121 17.121 0 0 0 60.752 28.047 A 31.582 31.582 0 0 0 61.467 27.504 A 37.646 37.646 0 0 0 61.914 27.148 A 48.425 48.425 0 0 0 63.006 26.241 A 44.416 44.416 0 0 0 63.076 26.182 Q 63.633 25.703 64.082 25.313 Q 64.531 24.922 64.766 24.727 A 7.081 7.081 0 0 1 64.858 24.821 Q 65.001 24.97 65.183 25.173 A 27.404 27.404 0 0 1 65.186 25.176 A 58.322 58.322 0 0 0 65.422 25.439 A 47.123 47.123 0 0 0 65.645 25.684 A 45.76 45.76 0 0 1 65.292 26.032 Q 64.973 26.344 64.57 26.729 A 33.509 33.509 0 0 1 63.633 27.588 A 39.229 39.229 0 0 1 63.174 27.988 A 55.017 55.017 0 0 1 61.611 29.277 A 23.333 23.333 0 0 1 60.613 30.03 A 19.644 19.644 0 0 1 60.029 30.43 A 14.063 14.063 0 0 1 59.33 30.863 Q 58.947 31.084 58.594 31.25 Q 57.945 31.555 57.501 31.562 A 1.312 1.312 0 0 1 57.48 31.563 A 1.106 1.106 0 0 1 57.263 31.539 Q 57.05 31.496 56.778 31.375 A 3.884 3.884 0 0 1 56.738 31.357 A 4.805 4.805 0 0 1 55.879 30.85 Q 55.469 30.547 55.176 30.176 A 1.662 1.662 0 0 1 55.009 29.923 Q 54.883 29.684 54.883 29.453 A 42.106 42.106 0 0 1 55.139 28.372 Q 55.263 27.881 55.386 27.449 A 23.255 23.255 0 0 1 55.469 27.168 A 40.271 40.271 0 0 1 55.683 26.475 Q 55.857 25.931 56.016 25.498 A 26.601 26.601 0 0 1 56.139 25.168 Q 56.293 24.763 56.423 24.469 A 8.714 8.714 0 0 1 56.465 24.375 L 56.758 23.73 A 4.763 4.763 0 0 1 56.309 23.516 L 55.879 23.281 A 20.401 20.401 0 0 1 55.549 23.623 A 25.69 25.69 0 0 1 55.186 23.984 A 84.635 84.635 0 0 1 54.414 24.727 A 39.497 39.497 0 0 1 53.633 25.449 A 54.982 54.982 0 0 0 53.262 25.786 A 40.491 40.491 0 0 0 52.93 26.094 Z M 81.094 26.094 L 80.156 25.137 Q 80.505 24.801 80.951 24.368 A 426.712 426.712 0 0 0 81.377 23.955 Q 82.09 23.262 82.773 22.559 A 22.592 22.592 0 0 1 82.31 22.273 A 17.018 17.018 0 0 1 81.895 22.002 Q 81.595 21.8 81.365 21.627 A 8.026 8.026 0 0 1 81.23 21.523 A 21.555 21.555 0 0 1 80.936 21.312 Q 80.779 21.198 80.645 21.094 Q 80.548 21.045 80.531 20.904 A 0.542 0.542 0 0 1 80.527 20.84 A 0.794 0.794 0 0 1 80.54 20.704 Q 80.566 20.561 80.638 20.365 A 3.921 3.921 0 0 1 80.693 20.225 A 7.427 7.427 0 0 1 80.881 19.81 A 9.887 9.887 0 0 1 81.113 19.365 A 24.331 24.331 0 0 1 81.588 18.547 A 26.899 26.899 0 0 1 81.66 18.428 A 19.176 19.176 0 0 1 81.948 17.971 A 15.025 15.025 0 0 1 82.227 17.559 Q 82.412 17.293 82.567 17.095 A 6.086 6.086 0 0 1 82.705 16.924 Q 82.91 16.68 82.969 16.68 A 0.096 0.096 0 0 1 82.99 16.683 Q 83.05 16.698 83.232 16.777 A 8.87 8.87 0 0 1 83.464 16.882 A 11.066 11.066 0 0 1 83.711 17.002 A 3.358 3.358 0 0 1 84.125 17.247 A 3.056 3.056 0 0 1 84.18 17.285 A 1.855 1.855 0 0 1 84.283 17.365 Q 84.377 17.445 84.425 17.513 A 0.353 0.353 0 0 1 84.453 17.559 A 0.873 0.873 0 0 1 84.462 17.612 Q 84.473 17.698 84.485 17.862 A 12.035 12.035 0 0 1 84.492 17.969 Q 84.506 18.184 84.519 18.463 A 58.809 58.809 0 0 1 84.531 18.73 A 21.008 21.008 0 0 1 85.683 19.369 A 24.283 24.283 0 0 1 86.094 19.619 Q 86.895 20.117 87.559 20.566 A 27.122 27.122 0 0 1 88.955 21.536 A 24.843 24.843 0 0 1 89.043 21.602 A 0.881 0.881 0 0 1 89.207 21.73 A 0.612 0.612 0 0 1 89.365 21.992 A 0.978 0.978 0 0 1 89.392 22.11 Q 89.414 22.246 89.387 22.358 A 0.504 0.504 0 0 1 89.375 22.402 Q 89.157 23.057 88.845 23.87 A 51.966 51.966 0 0 1 88.74 24.141 A 156.68 156.68 0 0 0 88.008 26.055 A 44.363 44.363 0 0 0 87.692 26.922 Q 87.548 27.334 87.428 27.705 A 26.784 26.784 0 0 0 87.412 27.754 Q 87.17 28.509 87.168 28.842 A 0.923 0.923 0 0 0 87.168 28.848 A 0.169 0.169 0 0 0 87.174 28.894 Q 87.189 28.946 87.242 28.96 A 0.173 0.173 0 0 0 87.285 28.965 A 0.55 0.55 0 0 0 87.419 28.946 Q 87.617 28.895 87.93 28.711 Q 88.259 28.517 88.662 28.231 A 17.121 17.121 0 0 0 88.916 28.047 A 31.582 31.582 0 0 0 89.631 27.504 A 37.646 37.646 0 0 0 90.078 27.148 A 48.425 48.425 0 0 0 91.17 26.241 A 44.416 44.416 0 0 0 91.24 26.182 Q 91.797 25.703 92.246 25.313 Q 92.695 24.922 92.93 24.727 A 7.081 7.081 0 0 1 93.022 24.821 Q 93.165 24.97 93.347 25.173 A 27.404 27.404 0 0 1 93.35 25.176 A 58.322 58.322 0 0 0 93.586 25.439 A 47.123 47.123 0 0 0 93.809 25.684 A 45.76 45.76 0 0 1 93.456 26.032 Q 93.137 26.344 92.734 26.729 A 33.509 33.509 0 0 1 91.797 27.588 A 39.229 39.229 0 0 1 91.338 27.988 A 55.017 55.017 0 0 1 89.775 29.277 A 23.333 23.333 0 0 1 88.777 30.03 A 19.644 19.644 0 0 1 88.193 30.43 A 14.063 14.063 0 0 1 87.494 30.863 Q 87.111 31.084 86.758 31.25 Q 86.109 31.555 85.665 31.562 A 1.312 1.312 0 0 1 85.645 31.563 A 1.106 1.106 0 0 1 85.427 31.539 Q 85.214 31.496 84.942 31.375 A 3.884 3.884 0 0 1 84.902 31.357 A 4.805 4.805 0 0 1 84.043 30.85 Q 83.633 30.547 83.34 30.176 A 1.662 1.662 0 0 1 83.173 29.923 Q 83.047 29.684 83.047 29.453 A 42.106 42.106 0 0 1 83.303 28.372 Q 83.427 27.881 83.55 27.449 A 23.255 23.255 0 0 1 83.633 27.168 A 40.271 40.271 0 0 1 83.847 26.475 Q 84.021 25.931 84.18 25.498 A 26.601 26.601 0 0 1 84.303 25.168 Q 84.457 24.763 84.587 24.469 A 8.714 8.714 0 0 1 84.629 24.375 L 84.922 23.73 A 4.763 4.763 0 0 1 84.473 23.516 L 84.043 23.281 A 20.401 20.401 0 0 1 83.713 23.623 A 25.69 25.69 0 0 1 83.35 23.984 A 84.635 84.635 0 0 1 82.578 24.727 A 39.497 39.497 0 0 1 81.797 25.449 A 54.982 54.982 0 0 0 81.426 25.786 A 40.491 40.491 0 0 0 81.094 26.094 Z M 9.082 17.773 A 203.983 203.983 0 0 0 9.095 17.769 Q 10.161 17.42 10.879 17.168 A 9.919 9.919 0 0 0 11.033 16.845 A 12.741 12.741 0 0 0 11.23 16.387 A 17.964 17.964 0 0 0 11.362 16.055 A 21.821 21.821 0 0 0 11.582 15.459 A 15.229 15.229 0 0 0 11.669 15.206 A 17.454 17.454 0 0 0 11.914 14.404 A 11.184 11.184 0 0 0 12.168 13.281 A 0.846 0.846 0 0 1 12.159 13.286 Q 12.044 13.35 11.701 13.498 A 26.39 26.39 0 0 1 11.523 13.574 Q 11.143 13.735 10.619 13.946 A 97.92 97.92 0 0 1 10.254 14.092 Q 9.492 14.395 8.564 14.766 A 1137.455 1137.455 0 0 0 6.689 15.518 A 356.509 356.509 0 0 0 4.834 16.27 Q 4.323 16.478 3.877 16.662 A 205.958 205.958 0 0 0 3.223 16.934 A 68.5 68.5 0 0 0 3.153 16.963 Q 2.67 17.165 2.311 17.324 A 23.265 23.265 0 0 0 2.07 17.432 Q 1.705 17.598 1.624 17.668 A 0.072 0.072 0 0 0 1.602 17.695 A 8.34 8.34 0 0 0 1.401 18.045 A 9.912 9.912 0 0 0 1.084 18.682 Q 0.84 19.219 0.625 19.775 A 15.657 15.657 0 0 0 0.521 20.052 A 13.855 13.855 0 0 0 0.254 20.859 Q 0.098 21.387 0 21.816 A 1.253 1.253 0 0 0 0.017 21.827 Q 0.152 21.915 0.664 22.207 A 261.068 261.068 0 0 1 1.027 22.415 Q 1.219 22.525 1.432 22.647 A 503.95 503.95 0 0 1 1.973 22.959 A 412.463 412.463 0 0 0 2.766 23.416 A 517.678 517.678 0 0 0 3.623 23.906 A 152.574 152.574 0 0 1 4.063 24.158 A 134.678 134.678 0 0 1 5.322 24.893 A 104.903 104.903 0 0 0 5.429 24.956 Q 5.801 25.174 6.137 25.368 A 62.488 62.488 0 0 0 6.777 25.732 A 394.642 394.642 0 0 1 6.877 25.788 Q 7.444 26.106 7.695 26.25 Q 7.854 26.067 8.032 25.834 A 13.363 13.363 0 0 0 8.252 25.537 A 31.647 31.647 0 0 0 8.56 25.103 A 37.228 37.228 0 0 0 8.877 24.639 A 24.917 24.917 0 0 0 9.502 23.662 A 14.978 14.978 0 0 0 9.684 23.354 A 12.776 12.776 0 0 0 10.039 22.695 A 54.611 54.611 0 0 1 9.924 22.651 Q 9.108 22.333 8.105 21.914 A 271.784 271.784 0 0 1 7.5 21.656 Q 7.182 21.519 6.832 21.369 A 494.141 494.141 0 0 1 5.947 20.986 A 93.313 93.313 0 0 1 4.651 20.413 A 122.005 122.005 0 0 1 3.242 19.766 A 982.149 982.149 0 0 1 4.454 19.347 Q 5.722 18.91 6.709 18.574 A 746.149 746.149 0 0 1 6.851 18.526 Q 7.839 18.19 8.582 17.941 A 255.679 255.679 0 0 1 9.082 17.773 Z M 248.477 21.406 A 2.112 2.112 0 0 0 248.559 21.394 Q 248.691 21.372 248.927 21.322 A 24.822 24.822 0 0 0 249.082 21.289 A 61.687 61.687 0 0 0 249.329 21.235 Q 249.607 21.173 249.982 21.088 A 232.978 232.978 0 0 0 250.342 21.006 Q 250.899 20.878 251.632 20.695 A 119.112 119.112 0 0 0 252.334 20.518 A 96.131 96.131 0 0 0 253.279 20.27 Q 254.116 20.046 255.117 19.766 A 585.438 585.438 0 0 1 253.899 19.196 Q 253.342 18.934 252.845 18.699 A 337.702 337.702 0 0 1 252.52 18.545 Q 251.741 18.176 251.128 17.876 A 70.861 70.861 0 0 1 250.605 17.617 A 71.859 71.859 0 0 1 249.941 17.309 Q 249.68 17.186 249.446 17.073 A 37.625 37.625 0 0 1 249.004 16.855 A 14.12 14.12 0 0 1 249.324 16.254 A 16.906 16.906 0 0 1 249.541 15.879 Q 249.844 15.371 250.166 14.893 Q 250.488 14.414 250.801 13.994 A 16.365 16.365 0 0 1 251.027 13.697 Q 251.208 13.464 251.367 13.281 Q 251.641 13.438 252.227 13.799 Q 252.73 14.109 253.349 14.506 A 107.616 107.616 0 0 1 253.555 14.639 A 237.447 237.447 0 0 0 254.701 15.373 A 264.092 264.092 0 0 0 255.098 15.625 A 121.926 121.926 0 0 1 255.869 16.118 A 97.717 97.717 0 0 1 256.582 16.582 Q 257.052 16.891 257.43 17.135 A 82.025 82.025 0 0 0 257.754 17.344 A 204.052 204.052 0 0 1 257.924 17.453 Q 258.237 17.654 258.343 17.723 A 4.856 4.856 0 0 1 258.359 17.734 A 14.423 14.423 0 0 1 258.263 18.116 Q 258.193 18.375 258.105 18.672 A 17.121 17.121 0 0 1 257.844 19.479 A 19.176 19.176 0 0 1 257.744 19.756 Q 257.539 20.313 257.285 20.859 Q 257.031 21.406 256.758 21.855 Q 256.725 21.905 256.394 22.054 A 10.253 10.253 0 0 1 256.27 22.109 Q 255.868 22.284 255.247 22.545 A 175.672 175.672 0 0 1 255.098 22.607 A 58.54 58.54 0 0 1 254.375 22.904 Q 253.94 23.08 253.447 23.271 A 525.724 525.724 0 0 0 251.553 24.014 A 1085.618 1085.618 0 0 1 249.639 24.766 A 584.076 584.076 0 0 1 248.733 25.12 A 436.78 436.78 0 0 1 247.91 25.439 A 92.818 92.818 0 0 0 247.536 25.585 Q 247.017 25.789 246.637 25.947 A 31.784 31.784 0 0 0 246.611 25.957 Q 246.109 26.165 245.966 26.245 A 0.791 0.791 0 0 0 245.957 26.25 A 22.244 22.244 0 0 1 246.211 25.662 A 28.61 28.61 0 0 1 246.504 25.029 Q 246.816 24.375 247.148 23.73 A 37.162 37.162 0 0 1 247.822 22.48 A 20.003 20.003 0 0 1 248.157 21.909 A 14.596 14.596 0 0 1 248.477 21.406 Z M 160.232 31.539 A 1.106 1.106 0 0 0 160.449 31.563 A 1.768 1.768 0 0 0 160.8 31.524 Q 160.982 31.487 161.186 31.415 A 4.409 4.409 0 0 0 161.582 31.25 A 8.069 8.069 0 0 0 161.625 31.23 Q 161.947 31.076 162.293 30.876 A 13.271 13.271 0 0 0 163.008 30.43 A 20.765 20.765 0 0 0 163.586 30.03 A 24.999 24.999 0 0 0 164.58 29.277 A 55.017 55.017 0 0 0 166.143 27.988 A 39.229 39.229 0 0 0 166.602 27.588 A 33.509 33.509 0 0 0 167.539 26.729 Q 167.942 26.344 168.261 26.032 A 45.76 45.76 0 0 0 168.613 25.684 A 47.123 47.123 0 0 1 168.391 25.439 A 58.322 58.322 0 0 1 168.154 25.176 A 27.404 27.404 0 0 0 168.151 25.173 Q 167.97 24.97 167.827 24.821 A 7.081 7.081 0 0 0 167.734 24.727 Q 167.5 24.922 167.051 25.313 Q 166.602 25.703 166.045 26.182 A 44.416 44.416 0 0 1 165.975 26.241 A 48.425 48.425 0 0 1 164.883 27.148 A 37.646 37.646 0 0 1 164.436 27.504 A 31.582 31.582 0 0 1 163.721 28.047 A 17.121 17.121 0 0 1 163.467 28.231 Q 163.063 28.517 162.734 28.711 Q 162.422 28.895 162.223 28.946 A 0.55 0.55 0 0 1 162.09 28.965 A 0.173 0.173 0 0 1 162.046 28.96 Q 161.993 28.946 161.978 28.894 A 0.169 0.169 0 0 1 161.973 28.848 A 0.994 0.994 0 0 1 161.98 28.735 Q 162.004 28.525 162.109 28.164 A 17.909 17.909 0 0 1 162.202 27.856 Q 162.253 27.694 162.311 27.517 A 32.509 32.509 0 0 1 162.461 27.07 A 36.462 36.462 0 0 1 162.69 26.423 A 45.269 45.269 0 0 1 162.949 25.732 L 163.496 24.307 A 114.928 114.928 0 0 0 163.631 23.953 A 102.62 102.62 0 0 0 164.014 22.93 Q 164.166 22.515 164.285 22.168 A 21.411 21.411 0 0 0 164.414 21.777 A 7.114 7.114 0 0 0 164.422 21.749 Q 164.446 21.664 164.462 21.6 A 2.355 2.355 0 0 0 164.473 21.553 A 1.065 1.065 0 0 0 164.483 21.499 Q 164.492 21.446 164.492 21.406 Q 164.492 21.185 164.259 20.903 A 2.454 2.454 0 0 0 164.082 20.713 A 6.623 6.623 0 0 0 163.843 20.491 A 7.639 7.639 0 0 0 163.154 19.951 A 11.908 11.908 0 0 0 162.711 19.656 A 9.247 9.247 0 0 0 162.168 19.336 Q 161.794 19.134 161.644 19.093 A 0.248 0.248 0 0 0 161.582 19.082 A 0.048 0.048 0 0 0 161.555 19.094 Q 161.484 19.148 161.332 19.444 A 7.543 7.543 0 0 0 161.25 19.609 Q 161.06 20.005 160.82 20.587 A 36.163 36.163 0 0 0 160.654 20.996 A 102.733 102.733 0 0 0 160.557 21.243 Q 160.408 21.62 160.245 22.04 A 174.383 174.383 0 0 0 159.893 22.959 A 53.913 53.913 0 0 0 159.092 25.215 A 80.925 80.925 0 0 0 158.379 27.48 A 43.856 43.856 0 0 0 158.288 27.789 Q 158.156 28.243 158.049 28.653 A 24.615 24.615 0 0 0 157.852 29.453 Q 157.852 29.684 157.978 29.923 A 1.662 1.662 0 0 0 158.145 30.176 Q 158.437 30.547 158.848 30.85 A 4.805 4.805 0 0 0 159.707 31.357 A 3.884 3.884 0 0 0 159.747 31.375 Q 160.019 31.496 160.232 31.539 Z M 208.008 12.051 Q 207.539 13.047 207.1 14.033 Q 206.66 15.02 206.25 16.016 A 98.369 98.369 0 0 0 208.789 12.607 A 59 59 0 0 0 210.224 10.5 A 48.476 48.476 0 0 0 210.986 9.287 A 29.828 29.828 0 0 0 211.809 7.848 Q 212.175 7.162 212.46 6.528 A 17.582 17.582 0 0 0 212.539 6.348 A 9.61 9.61 0 0 0 212.848 5.547 Q 212.982 5.143 213.051 4.787 A 3.715 3.715 0 0 0 213.125 4.082 Q 213.125 3.652 212.969 3.652 A 0.286 0.286 0 0 0 212.836 3.692 Q 212.655 3.789 212.382 4.125 A 5.673 5.673 0 0 0 212.256 4.287 A 11.918 11.918 0 0 0 211.939 4.731 Q 211.594 5.235 211.172 5.937 A 38.227 38.227 0 0 0 211.113 6.035 Q 210.449 7.148 209.658 8.691 A 105.677 105.677 0 0 0 208.85 10.303 A 131.812 131.812 0 0 0 208.008 12.051 Z M 182.363 41.641 A 0.763 0.763 0 0 0 182.606 41.595 Q 182.953 41.477 183.475 41.054 A 7.151 7.151 0 0 0 183.486 41.045 A 10.658 10.658 0 0 0 184.144 40.46 Q 184.469 40.148 184.81 39.776 A 18.885 18.885 0 0 0 185.039 39.521 A 22.655 22.655 0 0 0 186.203 38.087 A 26.476 26.476 0 0 0 186.65 37.471 A 18.838 18.838 0 0 0 187.457 36.229 A 14.974 14.974 0 0 0 187.969 35.293 A 112.552 112.552 0 0 0 186.753 36.184 A 88.079 88.079 0 0 0 185.645 37.021 A 20.889 20.889 0 0 0 184.694 37.795 Q 184.24 38.188 183.862 38.569 A 12.63 12.63 0 0 0 183.838 38.594 A 9.605 9.605 0 0 0 183.243 39.251 Q 182.902 39.667 182.666 40.068 A 3.223 3.223 0 0 0 182.365 40.733 A 2.485 2.485 0 0 0 182.246 41.484 Q 182.246 41.641 182.363 41.641 Z M 168.037 13.506 A 16.299 16.299 0 0 0 168.053 13.468 Q 168.165 13.198 168.184 13.125 Q 168.184 13.03 167.958 12.825 A 3.42 3.42 0 0 0 167.842 12.725 Q 167.5 12.441 167.021 12.148 A 8.376 8.376 0 0 0 166.035 11.631 Q 165.71 11.487 165.449 11.435 A 1.41 1.41 0 0 0 165.176 11.406 Q 165 11.406 164.678 11.855 A 5.911 5.911 0 0 0 164.657 11.885 Q 164.345 12.325 164.043 12.92 Q 163.73 13.535 163.496 14.189 Q 163.339 14.629 163.287 14.958 A 1.918 1.918 0 0 0 163.262 15.254 A 0.106 0.106 0 0 0 163.278 15.304 Q 163.32 15.38 163.474 15.503 A 3.125 3.125 0 0 0 163.584 15.586 A 4.656 4.656 0 0 0 163.677 15.652 Q 163.971 15.855 164.365 16.064 A 9.146 9.146 0 0 0 165.322 16.504 A 4.436 4.436 0 0 0 165.585 16.598 Q 165.917 16.705 166.172 16.719 Q 166.289 16.719 166.484 16.475 Q 166.68 16.23 166.895 15.859 A 15.912 15.912 0 0 0 167.112 15.471 A 19.645 19.645 0 0 0 167.334 15.049 A 17.749 17.749 0 0 0 167.496 14.725 A 14.817 14.817 0 0 0 167.734 14.209 A 62.213 62.213 0 0 0 167.839 13.968 Q 167.89 13.853 167.935 13.747 A 35.538 35.538 0 0 0 168.037 13.506 Z M 99.57 20.801 A 0.876 0.876 0 0 0 99.247 20.867 Q 98.997 20.967 98.719 21.213 A 3.011 3.011 0 0 0 98.711 21.221 A 4.849 4.849 0 0 0 98.301 21.639 Q 98.037 21.94 97.773 22.324 Q 97.305 23.008 96.875 23.896 A 14.758 14.758 0 0 0 96.133 25.742 Q 96.855 25.273 97.549 24.746 A 10.681 10.681 0 0 0 98.497 23.936 A 9.322 9.322 0 0 0 98.789 23.643 A 6.293 6.293 0 0 0 99.336 22.985 A 5.1 5.1 0 0 0 99.668 22.461 A 2.788 2.788 0 0 0 99.922 21.837 A 2.276 2.276 0 0 0 100 21.25 A 0.492 0.492 0 0 0 99.893 20.938 A 0.345 0.345 0 0 0 99.691 20.813 A 0.542 0.542 0 0 0 99.57 20.801 Z M 112.168 20.801 A 0.876 0.876 0 0 0 111.844 20.867 Q 111.594 20.967 111.317 21.213 A 3.011 3.011 0 0 0 111.309 21.221 A 4.849 4.849 0 0 0 110.898 21.639 Q 110.635 21.94 110.371 22.324 Q 109.902 23.008 109.473 23.896 A 14.758 14.758 0 0 0 108.73 25.742 Q 109.453 25.273 110.146 24.746 A 10.681 10.681 0 0 0 111.095 23.936 A 9.322 9.322 0 0 0 111.387 23.643 A 6.293 6.293 0 0 0 111.934 22.985 A 5.1 5.1 0 0 0 112.266 22.461 A 2.788 2.788 0 0 0 112.52 21.837 A 2.276 2.276 0 0 0 112.598 21.25 A 0.492 0.492 0 0 0 112.49 20.938 A 0.345 0.345 0 0 0 112.289 20.813 A 0.542 0.542 0 0 0 112.168 20.801 Z"
                  vector-effect="non-scaling-stroke"
                />               
    </g>
</svg>